<svg width="145" height="44" viewBox="0 0 145 44" fill="none" xmlns="http://www.w3.org/2000/svg">
<path d="M21.0787 43.2849H19.0847L4.38675 2.95625C4.12089 2.27363 3.72209 1.78861 3.19036 1.50478C2.65864 1.22095 1.91853 1.07724 0.970042 1.07724H0V0.563477H15.4381V1.07724H14.9243C13.9758 1.07724 13.2249 1.22814 12.6752 1.53352C12.122 1.83891 11.8489 2.35267 11.8489 3.07122C11.8489 3.22211 11.9064 3.51672 12.0178 3.95504C12.1327 4.39335 12.3519 5.0652 12.6752 5.97775C12.9986 6.88672 13.4333 8.09389 13.983 9.59566C14.5327 11.0974 15.2261 12.9836 16.0632 15.2614C16.9003 17.5428 17.9063 20.2769 19.0811 23.4637C20.2595 26.654 21.6463 30.3941 23.2379 34.6874C24.984 29.7869 26.475 25.6193 27.7109 22.1847C28.9432 18.75 29.9707 15.8902 30.7863 13.6124C31.6019 11.3345 32.2486 9.53817 32.7228 8.23041C33.197 6.91906 33.5491 5.9059 33.7755 5.18376C34.0054 4.46162 34.1455 3.98019 34.203 3.72869C34.2605 3.48079 34.2892 3.26523 34.2892 3.07481C34.2892 2.31674 34.0521 1.7922 33.5779 1.50837C33.1036 1.22454 32.2953 1.08083 31.1564 1.08083H29.1624V0.56707H40.9538V1.08083H39.3586C38.0293 1.08083 37.0413 1.38622 36.3946 1.99339C35.7479 2.60057 35.1802 3.60654 34.688 5.0113L21.0787 43.2849Z" fill="#763301"/>
<path d="M59.475 43.8567C56.8559 43.8567 54.4524 43.4292 52.268 42.5741C50.0836 41.719 48.2046 40.4113 46.6274 38.6437C45.0501 36.8796 43.825 34.6377 42.952 31.9216C42.0789 29.2091 41.6406 26.0079 41.6406 22.3254C41.6406 18.6787 42.0753 15.4596 42.952 12.6716C43.825 9.88007 45.0501 7.54478 46.6274 5.66577C48.201 3.78676 50.0836 2.37122 52.268 1.42273C54.4524 0.474246 56.8523 0 59.475 0C62.0582 0 64.4295 0.485022 66.5959 1.45147C68.7587 2.42152 70.6305 3.84425 72.2078 5.72326C73.7814 7.60227 75.0065 9.93037 75.8832 12.7004C76.7598 15.4704 77.1945 18.6823 77.1945 22.3254C77.1945 26.0115 76.7562 29.2019 75.8832 31.8965C75.0101 34.5946 73.785 36.8221 72.2078 38.5898C70.6305 40.3574 68.7623 41.6759 66.5959 42.549C64.4295 43.4184 62.0546 43.8567 59.475 43.8567ZM59.414 43.343C61.0091 43.343 62.4067 42.9657 63.5995 42.2041C64.7959 41.446 65.8127 40.2209 66.6462 38.5287C67.4797 36.8401 68.1084 34.6665 68.5252 32.0078C68.942 29.3492 69.1503 26.1229 69.1503 22.3254C69.1503 14.7698 68.3132 9.24415 66.6462 5.7484C64.9755 2.25625 62.5648 0.506579 59.4104 0.506579C56.2595 0.5461 53.8488 2.29936 52.1746 5.77715C50.5039 9.25134 49.6668 14.7662 49.6668 22.3254C49.6668 26.0834 49.8752 29.2953 50.292 31.9539C50.7087 34.6126 51.3375 36.7862 52.171 38.4748C53.0045 40.1634 54.0212 41.3993 55.2176 42.1789C56.4248 42.955 57.8224 43.343 59.414 43.343Z" fill="#763301"/>
<path d="M99.3526 0.563477V1.07724H97.2436C95.9143 1.07724 95.0233 1.3431 94.567 1.87483C94.1108 2.40656 93.8844 3.33708 93.8844 4.6664V24.4337C93.8844 26.8624 93.9599 29.2193 94.1143 31.4971C94.2652 33.7749 94.6748 35.7904 95.3395 37.5365C96.0041 39.2826 96.9921 40.6873 98.2999 41.7508C99.6112 42.8143 101.404 43.346 103.682 43.346C106.872 43.346 109.33 42.8035 111.058 41.7221C112.786 40.6406 114.047 39.1676 114.845 37.3066C115.642 35.4455 116.106 33.2539 116.242 30.7282C116.375 28.2025 116.44 25.4972 116.44 22.6122V4.66999C116.44 3.34067 116.231 2.41015 115.815 1.87843C115.398 1.3467 114.618 1.08083 113.479 1.08083H110.972V0.56707H122.763V1.08083H120.201C118.908 1.08083 118.103 1.3467 117.78 1.87843C117.456 2.41015 117.295 3.34067 117.295 4.66999V24.3798C117.295 26.0109 117.277 27.6277 117.237 29.2229C117.201 30.818 117.058 32.3378 116.81 33.7785C116.562 35.2228 116.163 36.5629 115.613 37.7952C115.06 39.0275 114.284 40.0945 113.278 40.9855C112.272 41.8765 110.99 42.5807 109.434 43.0909C107.875 43.6047 105.96 43.8597 103.682 43.8597C100.908 43.8597 98.5837 43.6047 96.7047 43.0909C94.8257 42.5771 93.2664 41.8478 92.0341 40.8993C90.7982 39.9508 89.8497 38.8119 89.1851 37.4826C88.5204 36.1533 88.0354 34.6839 87.7336 33.0671C87.4282 31.454 87.2486 29.7151 87.1911 27.854C87.1336 25.993 87.1049 24.0385 87.1049 21.9871V4.66999C87.1049 3.34067 86.9073 2.41015 86.5049 1.87843C86.1061 1.3467 85.3193 1.08083 84.1409 1.08083H81.6367V0.56707H99.3526V0.563477Z" fill="#763301"/>
<path d="M126.861 43.2856V42.7718H129.369C130.659 42.7718 131.474 42.5059 131.819 41.9742C132.161 41.4425 132.333 40.512 132.333 39.1826V4.66347C132.333 3.33415 132.143 2.40363 131.762 1.8719C131.381 1.34017 130.583 1.07431 129.369 1.07431H126.861V0.560547H144.577V1.07431H142.468C140.988 1.07431 140.054 1.34017 139.677 1.8719C139.296 2.40363 139.109 3.33415 139.109 4.66347V39.1826C139.109 40.512 139.299 41.4425 139.677 41.9742C140.054 42.5059 140.988 42.7718 142.468 42.7718H144.577V43.2856H126.861Z" fill="#763301"/>
</svg>
