<svg width="100" height="31" viewBox="0 0 100 31" fill="none" xmlns="http://www.w3.org/2000/svg">
<path d="M14.5801 29.94H13.2008L3.03431 2.04472C2.85041 1.57256 2.57456 1.23707 2.20677 1.04074C1.83897 0.844422 1.32704 0.745018 0.670976 0.745018H0V0.389648H10.6785V0.745018H10.3231C9.66704 0.745018 9.14765 0.849393 8.76743 1.06063C8.38473 1.27186 8.19586 1.62723 8.19586 2.12425C8.19586 2.22862 8.23562 2.4324 8.31266 2.73558C8.39218 3.03876 8.54377 3.50348 8.76743 4.13469C8.99109 4.76342 9.29179 5.59842 9.67201 6.63719C10.0522 7.67596 10.5318 8.98063 11.1109 10.5562C11.6899 12.1342 12.3857 14.0254 13.1984 16.2297C14.0135 18.4364 14.9727 21.0234 16.0736 23.9931C17.2814 20.6034 18.3127 17.7207 19.1676 15.345C20.02 12.9692 20.7307 10.9911 21.2948 9.41553C21.8589 7.83997 22.3062 6.59743 22.6343 5.69285C22.9623 4.78579 23.2059 4.08499 23.3624 3.58549C23.5215 3.08598 23.6184 2.75298 23.6581 2.57902C23.6979 2.40755 23.7178 2.25844 23.7178 2.12673C23.7178 1.60238 23.5538 1.23955 23.2257 1.04323C22.8977 0.846908 22.3386 0.747503 21.5508 0.747503H20.1715V0.392134H28.3276V0.747503H27.2243C26.3048 0.747503 25.6214 0.958737 25.1741 1.37872C24.7267 1.7987 24.3341 2.49453 23.9936 3.4662L14.5801 29.94Z" fill="black"/>
<path d="M41.1388 30.3356C39.3271 30.3356 37.6646 30.0399 36.1537 29.4484C34.6427 28.857 33.343 27.9524 32.2521 26.7297C31.1611 25.5095 30.3137 23.9588 29.7098 22.0801C29.1059 20.2039 28.8027 17.9896 28.8027 15.4424C28.8027 12.92 29.1034 10.6934 29.7098 8.76494C30.3137 6.83402 31.1611 5.21871 32.2521 3.919C33.3405 2.6193 34.6427 1.64017 36.1537 0.984101C37.6646 0.328035 39.3246 0 41.1388 0C42.9255 0 44.5657 0.335489 46.0642 1.00398C47.5603 1.67496 48.855 2.65906 49.946 3.95876C51.0344 5.25847 51.8818 6.86881 52.4882 8.78483C53.0946 10.7008 53.3953 12.9225 53.3953 15.4424C53.3953 17.9921 53.0921 20.1989 52.4882 22.0627C51.8843 23.929 51.0369 25.4698 49.946 26.6924C48.855 27.9151 47.5627 28.8271 46.0642 29.431C44.5657 30.0324 42.9231 30.3356 41.1388 30.3356ZM41.0965 29.9802C42.1999 29.9802 43.1666 29.7193 43.9917 29.1925C44.8192 28.6681 45.5225 27.8207 46.099 26.6502C46.6756 25.4822 47.1105 23.9787 47.3987 22.1397C47.687 20.3008 47.8311 18.0692 47.8311 15.4424C47.8311 10.2162 47.2521 6.39416 46.099 3.97616C44.9434 1.56064 43.2759 0.3504 41.094 0.3504C38.9146 0.377736 37.2471 1.59046 36.089 3.99604C34.9335 6.39913 34.3544 10.2138 34.3544 15.4424C34.3544 18.0418 34.4986 20.2635 34.7869 22.1025C35.0751 23.9414 35.51 25.4449 36.0866 26.6129C36.6631 27.7809 37.3664 28.6358 38.1939 29.1751C39.0289 29.7118 39.9956 29.9802 41.0965 29.9802Z" fill="black"/>
<path d="M68.7189 0.389648V0.745018H67.2601C66.3406 0.745018 65.7243 0.928915 65.4087 1.29671C65.0931 1.6645 64.9365 2.30815 64.9365 3.22763V16.9006C64.9365 18.5806 64.9887 20.2108 65.0956 21.7863C65.2 23.3619 65.4833 24.756 65.943 25.9638C66.4027 27.1716 67.0861 28.1432 67.9907 28.8788C68.8978 29.6144 70.1379 29.9822 71.7134 29.9822C73.9202 29.9822 75.62 29.607 76.8153 28.8589C78.0106 28.1109 78.8829 27.092 79.4346 25.8048C79.9863 24.5175 80.3069 23.0016 80.4013 21.2545C80.4933 19.5075 80.538 17.6362 80.538 15.6407V3.23012C80.538 2.31063 80.3938 1.66699 80.1056 1.2992C79.8173 0.931401 79.278 0.747503 78.4903 0.747503H76.7557V0.392134H84.9118V0.747503H83.1399C82.2453 0.747503 81.6886 0.931401 81.4649 1.2992C81.2413 1.66699 81.1294 2.31063 81.1294 3.23012V16.8634C81.1294 17.9916 81.117 19.1099 81.0897 20.2133C81.0648 21.3167 80.9654 22.3679 80.794 23.3644C80.6225 24.3634 80.3466 25.2903 79.9664 26.1427C79.5837 26.9951 79.0469 27.7332 78.3511 28.3495C77.6553 28.9658 76.7681 29.4529 75.692 29.8058C74.6135 30.1611 73.289 30.3376 71.7134 30.3376C69.7949 30.3376 68.187 30.1611 66.8873 29.8058C65.5876 29.4504 64.5091 28.9459 63.6567 28.2899C62.8018 27.6338 62.1458 26.846 61.686 25.9265C61.2263 25.007 60.8908 23.9906 60.682 22.8723C60.4708 21.7565 60.3466 20.5537 60.3068 19.2665C60.267 17.9792 60.2472 16.6273 60.2472 15.2083V3.23012C60.2472 2.31063 60.1105 1.66699 59.8321 1.2992C59.5563 0.931401 59.0121 0.747503 58.197 0.747503H56.4648V0.392134H68.7189V0.389648Z" fill="black"/>
<path d="M87.7461 29.94V29.5846H89.4807C90.3728 29.5846 90.937 29.4007 91.1755 29.0329C91.4116 28.6651 91.5309 28.0215 91.5309 27.102V3.22519C91.5309 2.3057 91.3992 1.66206 91.1358 1.29427C90.8724 0.926474 90.3207 0.742576 89.4807 0.742576H87.7461V0.387207H100V0.742576H98.5414C97.5175 0.742576 96.8714 0.926474 96.6104 1.29427C96.347 1.66206 96.2178 2.3057 96.2178 3.22519V27.102C96.2178 28.0215 96.3495 28.6651 96.6104 29.0329C96.8714 29.4007 97.5175 29.5846 98.5414 29.5846H100V29.94H87.7461Z" fill="black"/>
</svg>
